<?xml version="1.0" encoding="UTF-8"?>
<!DOCTYPE svg PUBLIC "-//W3C//DTD SVG 1.1//EN" "http://www.w3.org/Graphics/SVG/1.1/DTD/svg11.dtd">
<svg xmlns="http://www.w3.org/2000/svg" version="1.1" width="528px" height="342px" style="shape-rendering:geometricPrecision; text-rendering:geometricPrecision; image-rendering:optimizeQuality; fill-rule:evenodd; clip-rule:evenodd" xmlns:xlink="http://www.w3.org/1999/xlink">
<g><path style="opacity:1" fill="#fefefe" d="M -0.5,-0.5 C 175.5,-0.5 351.5,-0.5 527.5,-0.5C 527.5,113.5 527.5,227.5 527.5,341.5C 351.5,341.5 175.5,341.5 -0.5,341.5C -0.5,227.5 -0.5,113.5 -0.5,-0.5 Z"/></g>
<g><path style="opacity:1" fill="#097f45" d="M 144.5,165.5 C 143.508,165.672 142.842,165.338 142.5,164.5C 180.833,157.549 219.499,154.549 258.5,155.5C 257.786,144.52 257.286,133.52 257,122.5C 253.774,116.612 249.274,114.945 243.5,117.5C 243.5,118.833 243.5,120.167 243.5,121.5C 242.178,121.67 241.011,121.337 240,120.5C 239.167,121.5 238.333,122.5 237.5,123.5C 235.428,122.716 233.261,121.383 231,119.5C 229.419,121.575 227.585,121.575 225.5,119.5C 225.833,118.833 226.167,118.167 226.5,117.5C 225.354,116.281 224.354,114.948 223.5,113.5C 220.887,114.803 218.387,115.469 216,115.5C 215.716,113.114 214.716,112.448 213,113.5C 212.1,112.23 210.934,111.23 209.5,110.5C 210.313,109.186 211.313,108.019 212.5,107C 210.19,106.503 207.857,106.337 205.5,106.5C 204.796,104.322 204.463,102.322 204.5,100.5C 206.274,99.8133 207.941,98.9799 209.5,98C 208.663,96.9887 208.33,95.8221 208.5,94.5C 205.053,94.1857 201.72,93.3524 198.5,92C 199.167,91.3333 199.833,90.6667 200.5,90C 199.167,89 199.167,88 200.5,87C 199.376,86.7508 198.376,86.2508 197.5,85.5C 198.711,84.2798 198.711,83.1131 197.5,82C 200.106,81.5495 201.439,80.0495 201.5,77.5C 203.331,76.9478 204.997,76.9478 206.5,77.5C 207.524,76.1468 208.857,75.4802 210.5,75.5C 211.138,73.54 211.138,71.7067 210.5,70C 212.619,69.9024 214.286,69.0691 215.5,67.5C 214.675,66.6143 213.675,66.281 212.5,66.5C 212.672,64.5082 212.005,62.8415 210.5,61.5C 212.475,59.4549 212.475,57.7883 210.5,56.5C 214.638,53.9046 218.638,51.9046 222.5,50.5C 221.141,48.694 221.475,47.194 223.5,46C 222.484,45.4806 221.818,44.6473 221.5,43.5C 222.702,41.6661 223.702,39.8327 224.5,38C 223.376,37.7508 222.376,37.2508 221.5,36.5C 224.953,33.5485 228.786,31.2152 233,29.5C 233.308,30.3081 233.808,30.9747 234.5,31.5C 236.672,31.3241 239.005,31.1575 241.5,31C 240.359,30.2588 240.359,29.4255 241.5,28.5C 240.975,27.8076 240.308,27.3076 239.5,27C 243.404,23.7871 247.738,21.2871 252.5,19.5C 256.41,22.2837 260.076,21.9503 263.5,18.5C 264.72,19.7111 265.887,19.7111 267,18.5C 268.402,20.9734 269.902,20.9734 271.5,18.5C 273.833,19.5 275.5,21.1667 276.5,23.5C 280.306,25.6523 283.973,27.9857 287.5,30.5C 288.192,29.9747 288.692,29.3081 289,28.5C 290.11,30.0368 291.61,30.7035 293.5,30.5C 294.294,32.8728 295.294,35.2062 296.5,37.5C 296.291,38.086 295.957,38.586 295.5,39C 296.982,40.9829 298.649,42.8163 300.5,44.5C 300.291,45.086 299.957,45.586 299.5,46C 300.687,47.0195 301.687,48.1861 302.5,49.5C 301.626,51.7466 301.292,54.0799 301.5,56.5C 299.304,56.5652 297.304,57.2319 295.5,58.5C 300.495,60.9974 305.495,63.4974 310.5,66C 306.873,68.1122 306.873,69.7789 310.5,71C 308.026,73.4277 308.526,73.9277 312,72.5C 314.671,74.7229 314.838,76.8896 312.5,79C 314.008,80.5067 315.341,82.1733 316.5,84C 315.547,85.9552 314.213,87.6218 312.5,89C 313.833,90.3333 315.167,91.6667 316.5,93C 314.801,97.0153 311.801,99.3486 307.5,100C 308.747,101.494 308.747,102.994 307.5,104.5C 305.099,105.687 302.765,107.021 300.5,108.5C 299.167,107.833 297.833,107.167 296.5,106.5C 295.315,107.853 293.981,109.02 292.5,110C 289.068,110.534 285.735,112.034 282.5,114.5C 279.686,112.895 276.686,111.895 273.5,111.5C 273.728,109.645 273.061,108.812 271.5,109C 270.023,111.445 268.19,113.612 266,115.5C 265.263,128.855 265.429,142.188 266.5,155.5C 303.821,155.699 340.821,159.199 377.5,166C 335.209,163.744 292.875,161.911 250.5,160.5C 215.16,162.046 179.827,163.712 144.5,165.5 Z"/></g>
<g><path style="opacity:1" fill="#65b08b" d="M 142.5,164.5 C 142.842,165.338 143.508,165.672 144.5,165.5C 142.034,166.634 139.367,166.801 136.5,166C 138.518,165.495 140.518,164.995 142.5,164.5 Z"/></g>
<g><path style="opacity:1" fill="#0d8046" d="M 197.5,175.5 C 226.288,177.093 238.455,192.093 234,220.5C 228.035,234.955 217.201,242.621 201.5,243.5C 187.147,243.412 176.647,237.079 170,224.5C 163.228,207.754 166.728,193.587 180.5,182C 185.882,178.712 191.549,176.545 197.5,175.5 Z"/></g>
<g><path style="opacity:1" fill="#0d8046" d="M 261.5,176.5 C 271.788,175.243 281.455,177.076 290.5,182C 293.6,186.733 292.934,190.733 288.5,194C 282.523,192.118 276.356,190.618 270,189.5C 265.39,188.718 262.224,190.385 260.5,194.5C 260.876,196.383 261.876,197.883 263.5,199C 272.167,202.333 280.833,205.667 289.5,209C 296.925,217.703 297.425,226.87 291,236.5C 279.621,244.464 267.454,245.63 254.5,240C 251.059,238.224 247.892,236.057 245,233.5C 243.334,226.17 246.167,223.003 253.5,224C 260.208,229.412 267.875,231.412 276.5,230C 280.32,227.738 281.32,224.571 279.5,220.5C 271.623,217.374 263.623,214.541 255.5,212C 247.375,206.64 244.542,199.14 247,189.5C 250.162,183.164 254.996,178.831 261.5,176.5 Z"/></g>
<g><path style="opacity:1" fill="#087f44" d="M 46.5,176.5 C 55.1731,176.334 63.8397,176.5 72.5,177C 89.4135,181.651 95.2468,192.485 90,209.5C 86.0163,216.805 79.8496,220.971 71.5,222C 65.8431,222.499 60.1764,222.666 54.5,222.5C 54.9101,228.621 54.4101,234.621 53,240.5C 48.3562,243.615 44.3562,242.948 41,238.5C 40.3333,219.167 40.3333,199.833 41,180.5C 42.4998,178.531 44.3331,177.198 46.5,176.5 Z"/></g>
<g><path style="opacity:1" fill="#0b7f45" d="M 108.5,176.5 C 120.616,175.927 132.616,176.76 144.5,179C 154.899,184.831 158.732,193.665 156,205.5C 153.429,211.234 149.596,215.901 144.5,219.5C 148.192,224.025 151.692,228.692 155,233.5C 155.821,241.332 152.321,244.165 144.5,242C 138.926,235.516 133.593,228.849 128.5,222C 124.514,221.501 120.514,221.334 116.5,221.5C 116.916,227.952 116.416,234.285 115,240.5C 110.664,244.728 106.664,244.395 103,239.5C 102.333,219.833 102.333,200.167 103,180.5C 104.5,178.531 106.333,177.198 108.5,176.5 Z"/></g>
<g><path style="opacity:1" fill="#0c8046" d="M 346.5,215.5 C 338.167,215.5 329.833,215.5 321.5,215.5C 321.181,220.363 321.514,225.03 322.5,229.5C 332.839,229.334 343.172,229.5 353.5,230C 356.991,231.821 358.157,234.654 357,238.5C 356.5,240.333 355.333,241.5 353.5,242C 339.833,242.667 326.167,242.667 312.5,242C 311.069,241.535 309.903,240.701 309,239.5C 307.87,229.403 307.37,219.236 307.5,209C 307.357,199.072 307.857,189.238 309,179.5C 310.171,178.107 311.671,177.273 313.5,177C 326.167,176.333 338.833,176.333 351.5,177C 356.218,178.449 357.718,181.615 356,186.5C 355.167,187.333 354.333,188.167 353.5,189C 342.839,189.5 332.172,189.667 321.5,189.5C 321.5,193.833 321.5,198.167 321.5,202.5C 331.233,202.109 340.9,202.609 350.5,204C 352.347,206.579 352.847,209.412 352,212.5C 350.736,214.607 348.903,215.607 346.5,215.5 Z"/></g>
<g><path style="opacity:1" fill="#0e8046" d="M 375.5,176.5 C 386.618,175.961 397.618,176.795 408.5,179C 422.228,187.847 425.062,199.347 417,213.5C 413.123,218.01 408.289,220.843 402.5,222C 396.509,222.499 390.509,222.666 384.5,222.5C 384.666,227.179 384.499,231.845 384,236.5C 382.542,242.059 379.042,243.892 373.5,242C 371.513,240.681 370.346,238.848 370,236.5C 369.333,218.167 369.333,199.833 370,181.5C 371.73,179.598 373.563,177.931 375.5,176.5 Z"/></g>
<g><path style="opacity:1" fill="#158249" d="M 431.5,176.5 C 447.238,176.047 462.904,176.547 478.5,178C 482.5,181.667 482.5,185.333 478.5,189C 472.956,190.404 467.29,190.904 461.5,190.5C 461.667,206.17 461.5,221.837 461,237.5C 458.511,242.416 454.677,243.749 449.5,241.5C 448.194,240.088 447.36,238.421 447,236.5C 446.5,221.17 446.333,205.837 446.5,190.5C 440.738,190.851 435.072,190.351 429.5,189C 425.078,183.952 425.744,179.786 431.5,176.5 Z"/></g>
<g><path style="opacity:1" fill="#fdfefd" d="M 196.5,189.5 C 215.953,189.702 223.453,199.369 219,218.5C 213.589,228.116 205.422,231.616 194.5,229C 183.706,222.897 179.873,213.73 183,201.5C 185.833,195.493 190.333,191.493 196.5,189.5 Z"/></g>
<g><path style="opacity:1" fill="#f9fcfa" d="M 54.5,189.5 C 59.5111,189.334 64.5111,189.501 69.5,190C 79.4464,195.272 80.1131,201.605 71.5,209C 65.8431,209.499 60.1764,209.666 54.5,209.5C 54.5,202.833 54.5,196.167 54.5,189.5 Z"/></g>
<g><path style="opacity:1" fill="#f9fcfa" d="M 117.5,189.5 C 123.925,189.13 130.258,189.63 136.5,191C 144.327,196.57 144.327,202.236 136.5,208C 130.175,208.5 123.842,208.666 117.5,208.5C 117.5,202.167 117.5,195.833 117.5,189.5 Z"/></g>
<g><path style="opacity:1" fill="#8fc5ab" d="M 397.5,190.5 C 393.167,190.5 388.833,190.5 384.5,190.5C 384.5,196.833 384.5,203.167 384.5,209.5C 388.5,209.5 392.5,209.5 396.5,209.5C 392.366,210.485 388.032,210.818 383.5,210.5C 383.5,203.5 383.5,196.5 383.5,189.5C 388.363,189.181 393.03,189.514 397.5,190.5 Z"/></g>
<g><path style="opacity:1" fill="#fdfefd" d="M 397.5,190.5 C 406.307,192.112 408.807,197.112 405,205.5C 402.603,207.782 399.769,209.116 396.5,209.5C 392.5,209.5 388.5,209.5 384.5,209.5C 384.5,203.167 384.5,196.833 384.5,190.5C 388.833,190.5 393.167,190.5 397.5,190.5 Z"/></g>
<g><path style="opacity:1" fill="#bdddce" d="M 346.5,215.5 C 338.684,216.492 330.684,216.826 322.5,216.5C 322.5,220.833 322.5,225.167 322.5,229.5C 321.514,225.03 321.181,220.363 321.5,215.5C 329.833,215.5 338.167,215.5 346.5,215.5 Z"/></g>
<g><path style="opacity:1" fill="#077f45" d="M 106.5,259.5 C 108.167,259.5 109.833,259.5 111.5,259.5C 111.5,260.833 111.5,262.167 111.5,263.5C 108.09,263.384 106.756,265.05 107.5,268.5C 108.833,268.5 110.167,268.5 111.5,268.5C 111.5,269.5 111.5,270.5 111.5,271.5C 110.167,271.5 108.833,271.5 107.5,271.5C 107.5,277.5 107.5,283.5 107.5,289.5C 106.167,289.5 104.833,289.5 103.5,289.5C 104.035,282.822 103.369,276.322 101.5,270C 102.696,266.185 104.363,262.685 106.5,259.5 Z"/></g>
<g><path style="opacity:1" fill="#2f8d58" d="M 179.5,259.5 C 181.167,259.5 182.833,259.5 184.5,259.5C 185.167,263.5 183.5,265.167 179.5,264.5C 179.5,262.833 179.5,261.167 179.5,259.5 Z"/></g>
<g><path style="opacity:1" fill="#108047" d="M 258.5,259.5 C 259.833,259.5 261.167,259.5 262.5,259.5C 262.334,267.84 262.5,276.173 263,284.5C 264.356,285.38 265.856,285.714 267.5,285.5C 267.5,286.833 267.5,288.167 267.5,289.5C 264.03,290.125 261.196,289.125 259,286.5C 258.5,277.506 258.334,268.506 258.5,259.5 Z"/></g>
<g><path style="opacity:1" fill="#088046" d="M 384.5,259.5 C 385.833,259.5 387.167,259.5 388.5,259.5C 388.5,260.833 388.5,262.167 388.5,263.5C 388.5,262.167 388.5,260.833 388.5,259.5C 387.167,259.5 385.833,259.5 384.5,259.5 Z"/></g>
<g><path style="opacity:1" fill="#50a57c" d="M 307.5,269.5 C 307.44,270.043 307.107,270.376 306.5,270.5C 305.513,267.232 305.18,263.898 305.5,260.5C 304.5,260.5 303.5,260.5 302.5,260.5C 302.5,270.167 302.5,279.833 302.5,289.5C 301.506,279.681 301.173,269.681 301.5,259.5C 303.167,259.5 304.833,259.5 306.5,259.5C 306.187,263.042 306.521,266.375 307.5,269.5 Z"/></g>
<g><path style="opacity:1" fill="#17834a" d="M 307.5,269.5 C 310.796,267.973 313.962,268.307 317,270.5C 318.416,276.715 318.916,283.048 318.5,289.5C 317.167,289.5 315.833,289.5 314.5,289.5C 314.666,284.489 314.499,279.489 314,274.5C 312.174,270.963 309.84,270.629 307,273.5C 306.501,278.823 306.334,284.156 306.5,289.5C 305.167,289.5 303.833,289.5 302.5,289.5C 302.5,279.833 302.5,270.167 302.5,260.5C 303.5,260.5 304.5,260.5 305.5,260.5C 305.18,263.898 305.513,267.232 306.5,270.5C 307.107,270.376 307.44,270.043 307.5,269.5 Z"/></g>
<g><path style="opacity:1" fill="#288b56" d="M 415.5,262.5 C 417.167,262.5 418.833,262.5 420.5,262.5C 420.5,264.5 420.5,266.5 420.5,268.5C 421.833,268.5 423.167,268.5 424.5,268.5C 424.5,269.5 424.5,270.5 424.5,271.5C 423.167,271.5 421.833,271.5 420.5,271.5C 420.5,276.167 420.5,280.833 420.5,285.5C 421.833,285.5 423.167,285.5 424.5,285.5C 424.5,286.833 424.5,288.167 424.5,289.5C 420.51,290.384 417.677,289.051 416,285.5C 415.999,280.153 415.166,274.986 413.5,270C 415.085,267.744 415.752,265.244 415.5,262.5 Z"/></g>
<g><path style="opacity:1" fill="#68b18e" d="M 384.5,259.5 C 384.5,260.833 384.5,262.167 384.5,263.5C 385.833,263.5 387.167,263.5 388.5,263.5C 387.081,264.451 385.415,264.784 383.5,264.5C 383.216,262.585 383.549,260.919 384.5,259.5 Z"/></g>
<g><path style="opacity:1" fill="#0c8046" d="M 46.5,288.5 C 46.44,287.957 46.1067,287.624 45.5,287.5C 44.513,290.768 44.1796,294.102 44.5,297.5C 43.1667,297.5 41.8333,297.5 40.5,297.5C 40.5,287.833 40.5,278.167 40.5,268.5C 42.451,268.227 43.951,268.893 45,270.5C 49.2685,267.617 53.2685,267.95 57,271.5C 57.8257,276.589 57.4924,281.589 56,286.5C 53.3547,289.58 50.188,290.247 46.5,288.5 Z"/></g>
<g><path style="opacity:1" fill="#0a7f46" d="M 63.5,268.5 C 65.451,268.227 66.951,268.893 68,270.5C 69.2991,269.02 70.9658,268.354 73,268.5C 74.9729,268.309 76.4729,268.976 77.5,270.5C 77.1131,271.72 76.2798,272.387 75,272.5C 72.0691,270.92 69.7358,271.587 68,274.5C 67.5007,279.489 67.3341,284.489 67.5,289.5C 66.1667,289.5 64.8333,289.5 63.5,289.5C 63.5,282.5 63.5,275.5 63.5,268.5 Z"/></g>
<g><path style="opacity:1" fill="#1a844d" d="M 84.5,267.5 C 95.6774,267.8 99.5108,273.467 96,284.5C 93.1034,289.155 88.9367,290.655 83.5,289C 81.9512,287.786 80.7845,286.286 80,284.5C 79.3333,280.5 79.3333,276.5 80,272.5C 81.3657,270.638 82.8657,268.972 84.5,267.5 Z"/></g>
<g><path style="opacity:1" fill="#17834b" d="M 131.5,275.5 C 131.5,276.833 131.5,278.167 131.5,279.5C 127.116,279.174 122.783,279.508 118.5,280.5C 118.624,281.107 118.957,281.44 119.5,281.5C 119.511,283.017 120.177,284.184 121.5,285C 124.047,285.66 126.547,285.493 129,284.5C 130.059,284.63 130.892,285.13 131.5,286C 126.19,290.766 121.023,290.6 116,285.5C 113.345,279.361 114.178,273.861 118.5,269C 125.59,265.878 129.924,268.045 131.5,275.5 Z"/></g>
<g><path style="opacity:1" fill="#1d854e" d="M 141.5,268.5 C 144.518,268.335 147.518,268.502 150.5,269C 152.993,270.583 152.826,272.083 150,273.5C 147.263,272.39 144.429,272.223 141.5,273C 140.289,274.113 140.289,275.28 141.5,276.5C 145.302,277.097 148.968,278.097 152.5,279.5C 154.606,287.072 151.606,290.405 143.5,289.5C 140.679,289.832 138.346,288.999 136.5,287C 137.333,286.167 138.167,285.333 139,284.5C 142.745,287.335 146.245,287.168 149.5,284C 149.355,283.228 149.022,282.561 148.5,282C 145.313,281.111 142.147,280.278 139,279.5C 136.428,274.889 137.261,271.222 141.5,268.5 Z"/></g>
<g><path style="opacity:1" fill="#228751" d="M 161.5,268.5 C 164.85,268.335 168.183,268.502 171.5,269C 173.993,270.583 173.826,272.083 171,273.5C 168.263,272.39 165.429,272.223 162.5,273C 161.289,274.113 161.289,275.28 162.5,276.5C 165.107,277.318 167.774,277.818 170.5,278C 175.757,281.479 175.757,285.146 170.5,289C 165.49,290.125 160.823,289.458 156.5,287C 157.898,284.438 159.565,284.105 161.5,286C 163.833,286.667 166.167,286.667 168.5,286C 169.357,285.311 170.023,284.478 170.5,283.5C 166.648,282.087 162.815,280.421 159,278.5C 158.219,277.271 157.719,275.938 157.5,274.5C 158.432,272.235 159.765,270.235 161.5,268.5 Z"/></g>
<g><path style="opacity:1" fill="#017d43" d="M 179.5,268.5 C 180.833,268.5 182.167,268.5 183.5,268.5C 183.5,275.5 183.5,282.5 183.5,289.5C 182.167,289.5 180.833,289.5 179.5,289.5C 179.5,282.5 179.5,275.5 179.5,268.5 Z"/></g>
<g><path style="opacity:1" fill="#1f864f" d="M 194.5,267.5 C 204.716,267.209 208.883,272.209 207,282.5C 204.747,289.106 200.247,291.273 193.5,289C 192.667,288.167 191.833,287.333 191,286.5C 189.524,281.924 189.19,277.257 190,272.5C 191.366,270.638 192.866,268.972 194.5,267.5 Z"/></g>
<g><path style="opacity:1" fill="#1f8750" d="M 212.5,268.5 C 214.451,268.227 215.951,268.893 217,270.5C 220.742,267.952 224.575,267.952 228.5,270.5C 230.253,276.694 230.919,283.027 230.5,289.5C 228.833,289.5 227.167,289.5 225.5,289.5C 225.828,284.125 225.495,278.792 224.5,273.5C 221.709,271.96 219.209,272.294 217,274.5C 216.501,279.489 216.334,284.489 216.5,289.5C 215.167,289.5 213.833,289.5 212.5,289.5C 212.5,282.5 212.5,275.5 212.5,268.5 Z"/></g>
<g><path style="opacity:1" fill="#228851" d="M 238.5,268.5 C 241.85,268.335 245.183,268.502 248.5,269C 250.259,270.008 251.426,271.508 252,273.5C 252.499,278.823 252.666,284.156 252.5,289.5C 247.905,288.934 243.238,288.767 238.5,289C 234.237,286.353 233.57,283.019 236.5,279C 240.026,277.663 243.692,277.163 247.5,277.5C 247.057,271.339 244.223,270.005 239,273.5C 238.167,272.667 237.333,271.833 236.5,271C 237.381,270.292 238.047,269.458 238.5,268.5 Z"/></g>
<g><path style="opacity:1" fill="#1f864f" d="M 285.5,268.5 C 288.518,268.335 291.518,268.502 294.5,269C 296.952,270.806 296.619,272.306 293.5,273.5C 286.117,271.78 283.284,274.78 285,282.5C 287.061,287.072 290.061,287.739 294,284.5C 297.25,286.205 297.084,287.705 293.5,289C 290.833,289.667 288.167,289.667 285.5,289C 283.667,288.5 282.5,287.333 282,285.5C 279.197,278.831 280.363,273.164 285.5,268.5 Z"/></g>
<g><path style="opacity:1" fill="#238751" d="M 341.5,274.5 C 341.5,276.167 341.5,277.833 341.5,279.5C 336.968,279.182 332.634,279.515 328.5,280.5C 329.24,285.151 331.906,286.651 336.5,285C 338.51,282.958 340.176,283.291 341.5,286C 337.288,289.649 332.621,290.316 327.5,288C 322.722,282.227 322.388,276.227 326.5,270C 330.225,267.05 334.225,266.716 338.5,269C 340.16,270.488 341.16,272.321 341.5,274.5 Z"/></g>
<g><path style="opacity:1" fill="#14824a" d="M 347.5,268.5 C 349.451,268.227 350.951,268.893 352,270.5C 355.952,267.906 359.952,267.906 364,270.5C 367.238,268.573 370.738,268.073 374.5,269C 376.487,270.319 377.654,272.152 378,274.5C 378.499,279.489 378.666,284.489 378.5,289.5C 376.833,289.5 375.167,289.5 373.5,289.5C 373.666,284.489 373.499,279.489 373,274.5C 370.333,271.833 367.667,271.833 365,274.5C 364.501,279.489 364.334,284.489 364.5,289.5C 363.167,289.5 361.833,289.5 360.5,289.5C 360.666,284.489 360.499,279.489 360,274.5C 357.333,271.833 354.667,271.833 352,274.5C 351.501,279.489 351.334,284.489 351.5,289.5C 350.167,289.5 348.833,289.5 347.5,289.5C 347.5,282.5 347.5,275.5 347.5,268.5 Z"/></g>
<g><path style="opacity:1" fill="#0a8047" d="M 384.5,268.5 C 385.833,268.5 387.167,268.5 388.5,268.5C 388.5,275.5 388.5,282.5 388.5,289.5C 387.167,289.5 385.833,289.5 384.5,289.5C 384.5,282.5 384.5,275.5 384.5,268.5 Z"/></g>
<g><path style="opacity:1" fill="#1e864e" d="M 398.5,268.5 C 401.518,268.335 404.518,268.502 407.5,269C 409.993,270.583 409.826,272.083 407,273.5C 404.263,272.39 401.429,272.223 398.5,273C 397.273,274.587 397.606,275.921 399.5,277C 402.956,277.18 406.289,277.847 409.5,279C 411.896,286.786 408.896,290.286 400.5,289.5C 397.679,289.832 395.346,288.999 393.5,287C 394.898,284.438 396.565,284.105 398.5,286C 403.23,287.652 405.896,286.152 406.5,281.5C 402.9,281.206 399.4,280.54 396,279.5C 393.428,274.889 394.261,271.222 398.5,268.5 Z"/></g>
<g><path style="opacity:1" fill="#108249" d="M 429.5,268.5 C 431.451,268.227 432.951,268.893 434,270.5C 437.377,268.058 440.877,267.891 444.5,270C 443.646,271.022 442.646,271.855 441.5,272.5C 438.42,270.895 435.92,271.562 434,274.5C 433.501,279.489 433.334,284.489 433.5,289.5C 432.167,289.5 430.833,289.5 429.5,289.5C 429.5,282.5 429.5,275.5 429.5,268.5 Z"/></g>
<g><path style="opacity:1" fill="#1e854e" d="M 445.5,268.5 C 447.144,268.286 448.644,268.62 450,269.5C 451.535,273.773 452.869,278.106 454,282.5C 456.341,278.14 457.841,273.473 458.5,268.5C 460.288,268.215 461.955,268.548 463.5,269.5C 460.309,278.917 456.642,288.083 452.5,297C 450.866,297.494 449.199,297.66 447.5,297.5C 447.5,296.167 447.5,294.833 447.5,293.5C 450.246,293.072 451.913,291.406 452.5,288.5C 449.761,281.949 447.428,275.282 445.5,268.5 Z"/></g>
<g><path style="opacity:1" fill="#f1f8f5" d="M 127.5,274.5 C 125.012,276.388 122.012,277.055 118.5,276.5C 118.818,273.515 120.485,271.848 123.5,271.5C 125.653,271.561 126.986,272.561 127.5,274.5 Z"/></g>
<g><path style="opacity:1" fill="#f0f7f3" d="M 46.5,271.5 C 51.5218,271.346 53.8551,273.846 53.5,279C 53.8602,284.313 51.5269,286.313 46.5,285C 43.8569,280.435 43.8569,275.935 46.5,271.5 Z"/></g>
<g><path style="opacity:1" fill="#fbfdfc" d="M 85.5,272.5 C 88.0444,272.104 90.2111,272.771 92,274.5C 92.6667,277.5 92.6667,280.5 92,283.5C 89.3333,286.167 86.6667,286.167 84,283.5C 83.013,279.525 83.513,275.859 85.5,272.5 Z"/></g>
<g><path style="opacity:1" fill="#f8fbfa" d="M 195.5,272.5 C 200.502,271.491 202.835,273.491 202.5,278.5C 202.72,285.453 199.886,287.12 194,283.5C 193.013,279.525 193.513,275.859 195.5,272.5 Z"/></g>
<g><path style="opacity:1" fill="#e5f2eb" d="M 330.5,271.5 C 335.339,270.677 337.673,272.677 337.5,277.5C 334.5,277.5 331.5,277.5 328.5,277.5C 328.253,275.142 328.919,273.142 330.5,271.5 Z"/></g>
<g><path style="opacity:1" fill="#9ecdb7" d="M 127.5,274.5 C 128.404,275.209 128.737,276.209 128.5,277.5C 124.958,277.813 121.625,277.479 118.5,276.5C 122.012,277.055 125.012,276.388 127.5,274.5 Z"/></g>
<g><path style="opacity:1" fill="#acd4c1" d="M 131.5,275.5 C 132.451,276.919 132.784,278.585 132.5,280.5C 127.968,280.182 123.634,280.515 119.5,281.5C 118.957,281.44 118.624,281.107 118.5,280.5C 122.783,279.508 127.116,279.174 131.5,279.5C 131.5,278.167 131.5,276.833 131.5,275.5 Z"/></g>
<g><path style="opacity:1" fill="#bbdccc" d="M 341.5,274.5 C 342.461,276.265 342.795,278.265 342.5,280.5C 337.833,280.5 333.167,280.5 328.5,280.5C 332.634,279.515 336.968,279.182 341.5,279.5C 341.5,277.833 341.5,276.167 341.5,274.5 Z"/></g>
<g><path style="opacity:1" fill="#f1f8f4" d="M 239.5,280.5 C 242.167,280.5 244.833,280.5 247.5,280.5C 248.259,284.24 246.759,285.907 243,285.5C 238.833,285.791 237.666,284.124 239.5,280.5 Z"/></g>
<g><path style="opacity:1" fill="#9cccb5" d="M 46.5,288.5 C 45.8333,291.5 45.1667,294.5 44.5,297.5C 44.1796,294.102 44.513,290.768 45.5,287.5C 46.1067,287.624 46.44,287.957 46.5,288.5 Z"/></g>
</svg>
